<svg width="24" height="24" viewBox="0 0 24 24" fill="none" xmlns="http://www.w3.org/2000/svg">
  <!-- Brain/Memory icon -->
  <path d="M12 2C9.5 2 7.5 3.5 7 5.5C5.5 5.5 4 7 4 9C4 10.5 5 12 6.5 12.5C6 13.5 6 14.5 6.5 15.5C5 16 4 17.5 4 19C4 21 6 22 8 22C9 22 10 21.5 10.5 21C11 21.5 11.5 22 12 22C12.5 22 13 21.5 13.5 21C14 21.5 15 22 16 22C18 22 20 21 20 19C20 17.5 19 16 17.5 15.5C18 14.5 18 13.5 17.5 12.5C19 12 20 10.5 20 9C20 7 18.5 5.5 17 5.5C16.5 3.5 14.5 2 12 2Z"
        stroke="currentColor"
        stroke-width="1.5"
        stroke-linecap="round"
        stroke-linejoin="round"/>
  <!-- Connection lines representing memory/context -->
  <circle cx="9" cy="9" r="1.5" fill="currentColor"/>
  <circle cx="15" cy="9" r="1.5" fill="currentColor"/>
  <circle cx="12" cy="13" r="1.5" fill="currentColor"/>
  <circle cx="9" cy="17" r="1.5" fill="currentColor"/>
  <circle cx="15" cy="17" r="1.5" fill="currentColor"/>
  <!-- Connections -->
  <line x1="9" y1="10.5" x2="12" y2="11.5" stroke="currentColor" stroke-width="0.75"/>
  <line x1="15" y1="10.5" x2="12" y2="11.5" stroke="currentColor" stroke-width="0.75"/>
  <line x1="12" y1="14.5" x2="9" y2="15.5" stroke="currentColor" stroke-width="0.75"/>
  <line x1="12" y1="14.5" x2="15" y2="15.5" stroke="currentColor" stroke-width="0.75"/>
</svg>
